<?xml version="1.0" encoding="iso-8859-1"?>
<!-- Generator: Adobe Illustrator 19.0.0, SVG Export Plug-In . SVG Version: 6.00 Build 0)  -->
<svg version="1.1" id="Layer_1" xmlns="http://www.w3.org/2000/svg" xmlns:xlink="http://www.w3.org/1999/xlink" x="0px" y="0px"
	 viewBox="0 0 512 512" style="enable-background:new 0 0 512 512;" xml:space="preserve">
<g>
	<g>
		<g>
			<path d="M469.333,106.667H42.667C19.146,106.667,0,125.802,0,149.333v213.333c0,23.531,19.146,42.667,42.667,42.667h426.667
				c23.521,0,42.667-19.135,42.667-42.667V149.333C512,125.802,492.854,106.667,469.333,106.667z M490.667,362.667
				c0,11.76-9.563,21.333-21.333,21.333H42.667c-11.771,0-21.333-9.573-21.333-21.333V149.333c0-11.76,9.563-21.333,21.333-21.333
				h426.667c11.771,0,21.333,9.573,21.333,21.333V362.667z"/>
			<path d="M426.125,230.344l-15.021-5l-51.563-51.552c-2-2-4.708-3.125-7.542-3.125H160c-2.833,0-5.542,1.125-7.542,3.125
				l-51.563,51.552l-15.021,5.01C72.792,234.719,64,246.917,64,260.708v48.625c0,17.646,14.354,32,32,32h320
				c17.646,0,32-14.354,32-32v-48.625C448,246.917,439.208,234.719,426.125,230.344z M426.667,309.333
				c0,5.885-4.792,10.667-10.667,10.667H96c-5.875,0-10.667-4.781-10.667-10.667v-48.625c0-4.594,2.938-8.667,7.292-10.115
				l17.417-5.802c1.563-0.531,3-1.406,4.167-2.583L164.417,192h183.167l50.208,50.208c1.167,1.177,2.604,2.052,4.167,2.583
				l17.417,5.792c4.354,1.458,7.292,5.531,7.292,10.125V309.333z"/>
			<path d="M373.333,256h-10.667c0-5.896-4.771-10.667-10.667-10.667c-5.896,0-10.667,4.771-10.667,10.667h-42.667
				c0-5.896-4.771-10.667-10.667-10.667s-10.667,4.771-10.667,10.667h-42.667c0-5.896-4.771-10.667-10.667-10.667
				s-10.667,4.771-10.667,10.667h-42.667c0-5.896-4.771-10.667-10.667-10.667s-10.667,4.771-10.667,10.667h-10.667
				c-5.896,0-10.667,4.771-10.667,10.667c0,5.896,4.771,10.667,10.667,10.667h234.667c5.896,0,10.667-4.771,10.667-10.667
				C384,260.771,379.229,256,373.333,256z"/>
		</g>
	</g>
</g>
<g>
</g>
<g>
</g>
<g>
</g>
<g>
</g>
<g>
</g>
<g>
</g>
<g>
</g>
<g>
</g>
<g>
</g>
<g>
</g>
<g>
</g>
<g>
</g>
<g>
</g>
<g>
</g>
<g>
</g>
</svg>
